# xmcd CD database file
#
# Track frame offsets:
#	150
#	21754
#	37882
#	51408
#	68736
#	84469
#	103823
#	116132
#	134743
#	153949
#	170710
#	188978
#	207004
#	223835
#	237719
#	253693
#	281326
#
# Disc length: 4039 seconds
#
# Revision: 0
# Processed by: cddbd v1.5.2PL0 Copyright (c) Steve Scherf et al.
# Submitted via: CDex 1.75
#
DISCID=020fc511
DTITLE=John Denver - The Album  CD2 Black Line Coll.2343
DYEAR=2019
DGENRE=Country
TTITLE0=Back Home Again
TTITLE1=I'm Sorry
TTITLE2=The Eagle and The Hawk
TTITLE3=Calypso
TTITLE4=Rocky Mountains Suite
TTITLE5=To The Wild Country
TTITLE6=Alaska And Me
TTITLE7=Tenderly Calling
TTITLE8=Raven's Child
TTITLE9=Children Of The Universe
TTITLE10=Windsong
TTITLE11=Thanks To You
TTITLE12=Never A Doubt
TTITLE13=Ancient Rhymes
TTITLE14=Two Different Directions
TTITLE15=A Little Further North
TTITLE16=Eagles and Horses
EXTD=YEAR: 2019
EXTT0=
EXTT1=
EXTT2=
EXTT3=
EXTT4=
EXTT5=
EXTT6=
EXTT7=
EXTT8=
EXTT9=
EXTT10=
EXTT11=
EXTT12=
EXTT13=
EXTT14=
EXTT15=
EXTT16=
PLAYORDER=
